<svg width="52" height="76" viewBox="0 0 52 76" fill="none" xmlns="http://www.w3.org/2000/svg">
<rect x="2" width="48" height="48" rx="24" fill="#F2DE29"/>
<path d="M29 15H33C33.5304 15 34.0391 15.2107 34.4142 15.5858C34.7893 15.9609 35 16.4696 35 17V31C35 31.5304 34.7893 32.0391 34.4142 32.4142C34.0391 32.7893 33.5304 33 33 33H29" stroke="#4B1606" stroke-width="2" stroke-linecap="round" stroke-linejoin="round"/>
<path d="M24 29L29 24L24 19" stroke="#4B1606" stroke-width="2" stroke-linecap="round" stroke-linejoin="round"/>
<path d="M29 24H17" stroke="#4B1606" stroke-width="2" stroke-linecap="round" stroke-linejoin="round"/>
<path d="M5.57132 61.2C6.24332 61.2 6.84065 61.326 7.36332 61.578C7.88599 61.83 8.32465 62.1847 8.67932 62.642C9.04332 63.09 9.31399 63.6127 9.49132 64.21C9.67799 64.798 9.77132 65.428 9.77132 66.1C9.77132 67.0053 9.60799 67.8313 9.28132 68.578C8.95465 69.3153 8.47865 69.9033 7.85332 70.342C7.23732 70.7807 6.47665 71 5.57132 71H2.22532C1.98265 71 1.77732 70.9207 1.60932 70.762C1.45065 70.594 1.37132 70.3887 1.37132 70.146V62.054C1.37132 61.8113 1.45065 61.6107 1.60932 61.452C1.77732 61.284 1.98265 61.2 2.22532 61.2H5.57132ZM5.43132 69.39C6.01932 69.39 6.49999 69.2407 6.87332 68.942C7.24665 68.634 7.51732 68.2327 7.68532 67.738C7.86265 67.234 7.95132 66.688 7.95132 66.1C7.95132 65.6613 7.89999 65.246 7.79732 64.854C7.70399 64.4527 7.55465 64.1027 7.34932 63.804C7.14399 63.496 6.88265 63.2533 6.56532 63.076C6.24799 62.8987 5.86999 62.81 5.43132 62.81H2.98132L3.12132 62.684V69.544L3.03732 69.39H5.43132ZM14.8205 71.14C14.0272 71.14 13.3365 70.9767 12.7485 70.65C12.1698 70.314 11.7218 69.8613 11.4045 69.292C11.0965 68.7227 10.9425 68.0787 10.9425 67.36C10.9425 66.52 11.1105 65.806 11.4465 65.218C11.7918 64.6207 12.2398 64.1633 12.7905 63.846C13.3412 63.5287 13.9245 63.37 14.5405 63.37C15.0165 63.37 15.4645 63.468 15.8845 63.664C16.3138 63.86 16.6918 64.1307 17.0185 64.476C17.3452 64.812 17.6018 65.204 17.7885 65.652C17.9845 66.1 18.0825 66.576 18.0825 67.08C18.0732 67.304 17.9845 67.486 17.8165 67.626C17.6485 67.766 17.4525 67.836 17.2285 67.836H11.8805L11.4605 66.436H16.5985L16.2905 66.716V66.338C16.2718 66.0673 16.1738 65.8247 15.9965 65.61C15.8285 65.3953 15.6138 65.2273 15.3525 65.106C15.1005 64.9753 14.8298 64.91 14.5405 64.91C14.2605 64.91 13.9992 64.9473 13.7565 65.022C13.5138 65.0967 13.3038 65.2227 13.1265 65.4C12.9492 65.5773 12.8092 65.8153 12.7065 66.114C12.6038 66.4127 12.5525 66.7907 12.5525 67.248C12.5525 67.752 12.6552 68.1813 12.8605 68.536C13.0752 68.8813 13.3458 69.1473 13.6725 69.334C14.0085 69.5113 14.3632 69.6 14.7365 69.6C15.0818 69.6 15.3572 69.572 15.5625 69.516C15.7678 69.46 15.9312 69.3947 16.0525 69.32C16.1832 69.236 16.2998 69.166 16.4025 69.11C16.5705 69.026 16.7292 68.984 16.8785 68.984C17.0838 68.984 17.2518 69.054 17.3825 69.194C17.5225 69.334 17.5925 69.4973 17.5925 69.684C17.5925 69.936 17.4618 70.1647 17.2005 70.37C16.9578 70.5753 16.6172 70.7573 16.1785 70.916C15.7398 71.0653 15.2872 71.14 14.8205 71.14ZM23.3723 63.37C24.0257 63.37 24.609 63.538 25.1223 63.874C25.645 64.2007 26.0557 64.6533 26.3543 65.232C26.6623 65.8107 26.8163 66.4827 26.8163 67.248C26.8163 68.0133 26.6623 68.69 26.3543 69.278C26.0557 69.8567 25.6497 70.314 25.1363 70.65C24.6323 70.9767 24.063 71.14 23.4283 71.14C23.055 71.14 22.705 71.0793 22.3783 70.958C22.0517 70.8367 21.7623 70.6827 21.5103 70.496C21.2677 70.3093 21.0763 70.1227 20.9363 69.936C20.8057 69.74 20.7403 69.5767 20.7403 69.446L21.1743 69.264V72.946C21.1743 73.1887 21.095 73.3893 20.9363 73.548C20.7777 73.716 20.577 73.8 20.3343 73.8C20.0917 73.8 19.891 73.7207 19.7323 73.562C19.5737 73.4033 19.4943 73.198 19.4943 72.946V64.364C19.4943 64.1213 19.5737 63.9207 19.7323 63.762C19.891 63.594 20.0917 63.51 20.3343 63.51C20.577 63.51 20.7777 63.594 20.9363 63.762C21.095 63.9207 21.1743 64.1213 21.1743 64.364V65.05L20.9363 64.924C20.9363 64.8027 21.0017 64.658 21.1323 64.49C21.263 64.3127 21.4403 64.14 21.6643 63.972C21.8883 63.7947 22.145 63.65 22.4343 63.538C22.733 63.426 23.0457 63.37 23.3723 63.37ZM23.1623 64.91C22.7517 64.91 22.3923 65.0127 22.0843 65.218C21.7763 65.4233 21.5337 65.7033 21.3563 66.058C21.1883 66.4033 21.1043 66.8 21.1043 67.248C21.1043 67.6867 21.1883 68.088 21.3563 68.452C21.5337 68.8067 21.7763 69.0867 22.0843 69.292C22.3923 69.4973 22.7517 69.6 23.1623 69.6C23.573 69.6 23.9277 69.4973 24.2263 69.292C24.5343 69.0867 24.7723 68.8067 24.9403 68.452C25.1177 68.088 25.2063 67.6867 25.2063 67.248C25.2063 66.8 25.1177 66.4033 24.9403 66.058C24.7723 65.7033 24.5343 65.4233 24.2263 65.218C23.9277 65.0127 23.573 64.91 23.1623 64.91ZM35.4953 67.262C35.4953 68.0273 35.3227 68.704 34.9773 69.292C34.6413 69.8707 34.184 70.3233 33.6053 70.65C33.036 70.9767 32.3967 71.14 31.6873 71.14C30.978 71.14 30.334 70.9767 29.7553 70.65C29.186 70.3233 28.7287 69.8707 28.3833 69.292C28.0473 68.704 27.8793 68.0273 27.8793 67.262C27.8793 66.4967 28.0473 65.8247 28.3833 65.246C28.7287 64.658 29.186 64.2007 29.7553 63.874C30.334 63.538 30.978 63.37 31.6873 63.37C32.3967 63.37 33.036 63.538 33.6053 63.874C34.184 64.2007 34.6413 64.658 34.9773 65.246C35.3227 65.8247 35.4953 66.4967 35.4953 67.262ZM33.8153 67.262C33.8153 66.786 33.7173 66.3753 33.5213 66.03C33.3347 65.6753 33.078 65.4 32.7513 65.204C32.434 65.008 32.0793 64.91 31.6873 64.91C31.2953 64.91 30.936 65.008 30.6093 65.204C30.292 65.4 30.0353 65.6753 29.8393 66.03C29.6527 66.3753 29.5593 66.786 29.5593 67.262C29.5593 67.7287 29.6527 68.1393 29.8393 68.494C30.0353 68.8393 30.292 69.11 30.6093 69.306C30.936 69.502 31.2953 69.6 31.6873 69.6C32.0793 69.6 32.434 69.502 32.7513 69.306C33.078 69.11 33.3347 68.8393 33.5213 68.494C33.7173 68.1393 33.8153 67.7287 33.8153 67.262ZM36.4757 69.838C36.3823 69.7073 36.3403 69.5393 36.3497 69.334C36.359 69.1287 36.4803 68.9513 36.7137 68.802C36.863 68.7087 37.0217 68.6713 37.1897 68.69C37.3577 68.6993 37.521 68.7833 37.6797 68.942C37.9503 69.2127 38.235 69.4227 38.5337 69.572C38.8323 69.7213 39.2057 69.796 39.6537 69.796C39.7937 69.7867 39.9477 69.768 40.1157 69.74C40.2837 69.7027 40.4283 69.628 40.5497 69.516C40.6803 69.3947 40.7457 69.2127 40.7457 68.97C40.7457 68.7647 40.6757 68.6013 40.5357 68.48C40.3957 68.3587 40.209 68.256 39.9757 68.172C39.7517 68.088 39.4997 68.0087 39.2197 67.934C38.9303 67.85 38.6317 67.7567 38.3237 67.654C38.025 67.5513 37.7497 67.4207 37.4977 67.262C37.2457 67.094 37.0403 66.8747 36.8817 66.604C36.723 66.3333 36.6437 65.9927 36.6437 65.582C36.6437 65.1153 36.7743 64.7187 37.0357 64.392C37.297 64.0653 37.633 63.8133 38.0437 63.636C38.4637 63.4587 38.9023 63.37 39.3597 63.37C39.649 63.37 39.9523 63.4073 40.2697 63.482C40.587 63.5473 40.8903 63.6593 41.1797 63.818C41.469 63.9673 41.7117 64.168 41.9077 64.42C42.0103 64.56 42.071 64.728 42.0897 64.924C42.1083 65.12 42.0197 65.2973 41.8237 65.456C41.6837 65.568 41.5203 65.6193 41.3337 65.61C41.147 65.5913 40.993 65.526 40.8717 65.414C40.713 65.2087 40.4983 65.0453 40.2277 64.924C39.9663 64.8027 39.663 64.742 39.3177 64.742C39.1777 64.742 39.0237 64.7607 38.8557 64.798C38.697 64.826 38.557 64.896 38.4357 65.008C38.3143 65.1107 38.2537 65.2787 38.2537 65.512C38.2537 65.7267 38.3237 65.8993 38.4637 66.03C38.6037 66.1513 38.7903 66.254 39.0237 66.338C39.2663 66.4127 39.523 66.4873 39.7937 66.562C40.0737 66.6367 40.3583 66.7253 40.6477 66.828C40.937 66.9307 41.203 67.066 41.4457 67.234C41.6883 67.402 41.8843 67.6213 42.0337 67.892C42.183 68.1533 42.2577 68.4893 42.2577 68.9C42.2577 69.376 42.1177 69.782 41.8377 70.118C41.5577 70.454 41.2077 70.7107 40.7877 70.888C40.3677 71.056 39.9383 71.14 39.4997 71.14C38.949 71.14 38.3983 71.0467 37.8477 70.86C37.297 70.664 36.8397 70.3233 36.4757 69.838ZM45.1896 70.146C45.1896 70.3887 45.1102 70.594 44.9516 70.762C44.7929 70.9207 44.5922 71 44.3496 71C44.1069 71 43.9062 70.9207 43.7476 70.762C43.5889 70.594 43.5096 70.3887 43.5096 70.146V64.364C43.5096 64.1213 43.5889 63.9207 43.7476 63.762C43.9062 63.594 44.1069 63.51 44.3496 63.51C44.5922 63.51 44.7929 63.594 44.9516 63.762C45.1102 63.9207 45.1896 64.1213 45.1896 64.364V70.146ZM44.3356 62.6C44.0182 62.6 43.7942 62.5487 43.6636 62.446C43.5329 62.3433 43.4676 62.1613 43.4676 61.9V61.634C43.4676 61.3633 43.5376 61.1813 43.6776 61.088C43.8269 60.9853 44.0509 60.934 44.3496 60.934C44.6762 60.934 44.9049 60.9853 45.0356 61.088C45.1662 61.1907 45.2316 61.3727 45.2316 61.634V61.9C45.2316 62.1707 45.1616 62.3573 45.0216 62.46C44.8816 62.5533 44.6529 62.6 44.3356 62.6ZM46.9442 63.65H50.2622C50.4862 63.65 50.6728 63.7247 50.8222 63.874C50.9715 64.0233 51.0462 64.21 51.0462 64.434C51.0462 64.6487 50.9715 64.8307 50.8222 64.98C50.6728 65.12 50.4862 65.19 50.2622 65.19H46.9442C46.7202 65.19 46.5335 65.1153 46.3842 64.966C46.2348 64.8167 46.1602 64.63 46.1602 64.406C46.1602 64.1913 46.2348 64.014 46.3842 63.874C46.5335 63.7247 46.7202 63.65 46.9442 63.65ZM48.4422 61.9C48.6848 61.9 48.8808 61.984 49.0302 62.152C49.1888 62.3107 49.2682 62.5113 49.2682 62.754V68.984C49.2682 69.1147 49.2915 69.222 49.3382 69.306C49.3942 69.39 49.4642 69.4507 49.5482 69.488C49.6415 69.5253 49.7395 69.544 49.8422 69.544C49.9542 69.544 50.0568 69.5253 50.1502 69.488C50.2435 69.4413 50.3508 69.418 50.4722 69.418C50.6028 69.418 50.7195 69.4787 50.8222 69.6C50.9342 69.7213 50.9902 69.8893 50.9902 70.104C50.9902 70.3653 50.8455 70.58 50.5562 70.748C50.2762 70.916 49.9728 71 49.6462 71C49.4502 71 49.2308 70.986 48.9882 70.958C48.7548 70.9207 48.5308 70.8413 48.3162 70.72C48.1108 70.5893 47.9382 70.3933 47.7982 70.132C47.6582 69.8707 47.5882 69.5113 47.5882 69.054V62.754C47.5882 62.5113 47.6675 62.3107 47.8262 62.152C47.9942 61.984 48.1995 61.9 48.4422 61.9Z" fill="white"/>
</svg>
