<svg xmlns="http://www.w3.org/2000/svg" width="128" height="24" viewBox="0 0 128 24" fill="none">
<path fill-rule="evenodd" clip-rule="evenodd" d="M127.664 0.681347L127.755 0.618169H127.53L126.814 0.494633H122.587L121.871 0.350508H113.286L112.245 0.206382H103.724L102.944 0.000488281L73.3499 0.0622563L72.8947 0.206382H70.0328L69.0572 0.432865H64.6994L63.7888 0.556401H63.2034L62.1628 0.762295L58.4554 0.700526L57.7399 0.556401H55.2033L54.3577 0.371097H28.6012L27.2353 0.659348H24.3735L23.0726 0.844652H19.7555L18.5197 0.659348H17.6091L17.0238 0.453454H15.5928L14.4221 0.371097H12.5359L11.5602 0.206382H9.34883L8.63337 0.0828457L0.110313 0.0646157L-0.000671387 0.143088V0.215668L0.17831 0.409216V0.675344L-0.000671387 0.808409V1.19551L0.17831 1.40115V1.83663L0.357288 1.9697V2.30841L0.513893 2.40518V2.6955L0.670502 2.86486V4.25598L0.513893 4.32856V4.65518L0.357288 4.77614V5.15114L0.17831 5.28421V6.01001L0.357288 6.13098V6.27962L0.513897 6.41268V6.52155L0.737617 6.64252V7.16268L0.603386 7.24736V7.8159L0.737617 7.97316V8.50542L0.84948 8.5901V8.85622L1.00609 8.9651V9.41267L0.84948 9.52155V10.0659L0.670502 10.2353V10.4167L0.446777 10.5982V11.6264L0.290173 11.8199L0.290169 16.885L0.446777 17.0422V18.0705L0.648129 18.2156L0.648125 18.4334L0.78236 18.5664V19.1229L0.961338 19.2801V19.6068L0.78236 19.7761V20.018L0.648125 20.2237V20.6713L0.446774 20.8164V21.3729L0.648125 21.518V21.9656L0.446774 22.0382V22.2318L0.334911 22.3406V23.3205L0.178307 23.4293V23.5063H2.86903L3.39802 23.6505H9.74582L10.5152 23.7946H16.815L17.392 24.0005L39.2727 23.9387L39.6093 23.7946H41.7253L42.4466 23.5681H45.6686L46.3419 23.4446H46.7747L47.5441 23.2387L50.2852 23.3004L50.8142 23.4446H52.6897L53.3148 23.6299H72.3582L73.3681 23.3416H75.484L76.4458 23.1563H78.8984L79.8121 23.3416H80.4854L80.9182 23.5475H81.9761L82.8417 23.6299H84.2363L84.9577 23.7946H86.5927L87.1217 23.9181L108.473 23.9799L109.435 23.7946L115.446 23.8358L116.168 23.6916L122.852 23.6093L123.766 23.5269H126.555L127.276 23.3622H127.821V23.3265L128 23.1934V22.8063L127.821 22.6007V22.1652L127.642 22.0321V21.6934L127.485 21.5966V21.3063L127.329 21.1369V19.7458L127.485 19.6732V19.3466L127.642 19.2257V18.8507L127.821 18.7176V17.9918L127.642 17.8708V17.7222L127.485 17.5891V17.4803L127.261 17.3593V16.8391L127.396 16.7544V16.1859L127.261 16.0286V15.4964L127.15 15.4117V15.1456L126.993 15.0367V14.5891L127.15 14.4803V13.9359L127.329 13.7666V13.5851L127.552 13.4036V12.3754L127.709 12.1819V7.11682L127.552 6.95956V5.93134L127.351 5.78617V5.56843L127.217 5.43537V4.87892L127.038 4.72166V4.39505L127.217 4.22569V3.98376L127.351 3.77811V3.33053L127.552 3.18537V2.62892L127.351 2.48376V2.03618L127.552 1.9636V1.77005L127.664 1.66118V0.681347Z" fill="white" fill-opacity="0.3"/>
</svg>